<mxfile host="Electron" agent="Mozilla/5.0 (Windows NT 10.0; Win64; x64) AppleWebKit/537.36 (KHTML, like Gecko) draw.io/28.1.2 Chrome/138.0.7204.243 Electron/37.4.0 Safari/537.36" version="28.1.2">
  <diagram name="Page-1" id="GMyTLxxd6BCKeR2ttX8b">
    <mxGraphModel dx="680" dy="618" grid="1" gridSize="10" guides="1" tooltips="1" connect="1" arrows="1" fold="1" page="1" pageScale="1" pageWidth="850" pageHeight="1100" math="0" shadow="0">
      <root>
        <mxCell id="0" />
        <mxCell id="1" parent="0" />
        <mxCell id="dsNjfaGnqW-TMkT9A3lu-5" value="region" style="swimlane;fontStyle=1;childLayout=stackLayout;horizontal=1;startSize=26;horizontalStack=0;resizeParent=1;resizeParentMax=0;resizeLast=0;collapsible=1;marginBottom=0;align=center;fontSize=15;swimlaneFillColor=#FFFFFF;swimlaneLine=0;rounded=1;shadow=0;fillColor=#FAE5C7;fontColor=#143642;strokeColor=#0F8B8D;labelBackgroundColor=none;" parent="1" vertex="1">
          <mxGeometry x="320" y="80" width="160" height="86" as="geometry" />
        </mxCell>
        <mxCell id="dsNjfaGnqW-TMkT9A3lu-7" value="&lt;font style=&quot;color: rgb(0, 0, 153);&quot;&gt;region_id (pk)&lt;/font&gt;" style="text;strokeColor=none;fillColor=none;spacingLeft=4;spacingRight=4;overflow=hidden;rotatable=0;points=[[0,0.5],[1,0.5]];portConstraint=eastwest;fontSize=14;whiteSpace=wrap;html=1;labelBackgroundColor=none;fontColor=#143642;" parent="dsNjfaGnqW-TMkT9A3lu-5" vertex="1">
          <mxGeometry y="26" width="160" height="30" as="geometry" />
        </mxCell>
        <mxCell id="dsNjfaGnqW-TMkT9A3lu-9" value="&lt;font style=&quot;color: rgb(0, 0, 153);&quot;&gt;region_name&lt;/font&gt;" style="text;strokeColor=none;fillColor=none;spacingLeft=4;spacingRight=4;overflow=hidden;rotatable=0;points=[[0,0.5],[1,0.5]];portConstraint=eastwest;fontSize=14;whiteSpace=wrap;html=1;labelBackgroundColor=none;fontColor=#143642;" parent="dsNjfaGnqW-TMkT9A3lu-5" vertex="1">
          <mxGeometry y="56" width="160" height="30" as="geometry" />
        </mxCell>
        <mxCell id="dsNjfaGnqW-TMkT9A3lu-10" value="customers" style="swimlane;fontStyle=1;childLayout=stackLayout;horizontal=1;startSize=26;horizontalStack=0;resizeParent=1;resizeParentMax=0;resizeLast=0;collapsible=1;marginBottom=0;align=center;fontSize=15;swimlaneFillColor=#FFFFFF;swimlaneLine=0;rounded=1;shadow=0;fillColor=#FAE5C7;fontColor=#143642;strokeColor=#0F8B8D;labelBackgroundColor=none;" parent="1" vertex="1">
          <mxGeometry x="30" y="80" width="160" height="176" as="geometry" />
        </mxCell>
        <mxCell id="dsNjfaGnqW-TMkT9A3lu-11" value="&lt;font color=&quot;#000099&quot;&gt;customer_id (pk)&lt;/font&gt;&lt;div&gt;&lt;font color=&quot;#000099&quot;&gt;&lt;br&gt;&lt;/font&gt;&lt;/div&gt;" style="text;strokeColor=none;fillColor=none;spacingLeft=4;spacingRight=4;overflow=hidden;rotatable=0;points=[[0,0.5],[1,0.5]];portConstraint=eastwest;fontSize=14;whiteSpace=wrap;html=1;labelBackgroundColor=none;fontColor=#143642;" parent="dsNjfaGnqW-TMkT9A3lu-10" vertex="1">
          <mxGeometry y="26" width="160" height="30" as="geometry" />
        </mxCell>
        <mxCell id="dsNjfaGnqW-TMkT9A3lu-15" value="&lt;font style=&quot;color: rgb(0, 0, 153);&quot;&gt;name&lt;/font&gt;" style="text;strokeColor=none;fillColor=none;spacingLeft=4;spacingRight=4;overflow=hidden;rotatable=0;points=[[0,0.5],[1,0.5]];portConstraint=eastwest;fontSize=14;whiteSpace=wrap;html=1;labelBackgroundColor=none;fontColor=#143642;" parent="dsNjfaGnqW-TMkT9A3lu-10" vertex="1">
          <mxGeometry y="56" width="160" height="30" as="geometry" />
        </mxCell>
        <mxCell id="dsNjfaGnqW-TMkT9A3lu-14" value="&lt;font style=&quot;color: rgb(0, 0, 153);&quot;&gt;email&lt;/font&gt;" style="text;strokeColor=none;fillColor=none;spacingLeft=4;spacingRight=4;overflow=hidden;rotatable=0;points=[[0,0.5],[1,0.5]];portConstraint=eastwest;fontSize=14;whiteSpace=wrap;html=1;labelBackgroundColor=none;fontColor=#143642;" parent="dsNjfaGnqW-TMkT9A3lu-10" vertex="1">
          <mxGeometry y="86" width="160" height="30" as="geometry" />
        </mxCell>
        <mxCell id="dsNjfaGnqW-TMkT9A3lu-13" value="&lt;font style=&quot;color: rgb(0, 0, 153);&quot;&gt;phone&lt;/font&gt;" style="text;strokeColor=none;fillColor=none;spacingLeft=4;spacingRight=4;overflow=hidden;rotatable=0;points=[[0,0.5],[1,0.5]];portConstraint=eastwest;fontSize=14;whiteSpace=wrap;html=1;labelBackgroundColor=none;fontColor=#143642;" parent="dsNjfaGnqW-TMkT9A3lu-10" vertex="1">
          <mxGeometry y="116" width="160" height="30" as="geometry" />
        </mxCell>
        <mxCell id="dsNjfaGnqW-TMkT9A3lu-16" value="&lt;font style=&quot;color: rgb(0, 0, 153);&quot;&gt;region_id&lt;/font&gt;" style="text;strokeColor=none;fillColor=none;spacingLeft=4;spacingRight=4;overflow=hidden;rotatable=0;points=[[0,0.5],[1,0.5]];portConstraint=eastwest;fontSize=14;whiteSpace=wrap;html=1;labelBackgroundColor=none;fontColor=#143642;" parent="dsNjfaGnqW-TMkT9A3lu-10" vertex="1">
          <mxGeometry y="146" width="160" height="30" as="geometry" />
        </mxCell>
        <mxCell id="dsNjfaGnqW-TMkT9A3lu-17" value="products" style="swimlane;fontStyle=1;childLayout=stackLayout;horizontal=1;startSize=26;horizontalStack=0;resizeParent=1;resizeParentMax=0;resizeLast=0;collapsible=1;marginBottom=0;align=center;fontSize=15;swimlaneFillColor=#FFFFFF;swimlaneLine=0;rounded=1;shadow=0;fillColor=#FAE5C7;fontColor=#143642;strokeColor=#0F8B8D;labelBackgroundColor=none;" parent="1" vertex="1">
          <mxGeometry x="590" y="80" width="160" height="146" as="geometry" />
        </mxCell>
        <mxCell id="dsNjfaGnqW-TMkT9A3lu-18" value="&lt;font color=&quot;#000099&quot;&gt;product_id (pk)&lt;/font&gt;&lt;div&gt;&lt;font color=&quot;#000099&quot;&gt;&lt;br&gt;&lt;/font&gt;&lt;/div&gt;" style="text;strokeColor=none;fillColor=none;spacingLeft=4;spacingRight=4;overflow=hidden;rotatable=0;points=[[0,0.5],[1,0.5]];portConstraint=eastwest;fontSize=14;whiteSpace=wrap;html=1;labelBackgroundColor=none;fontColor=#143642;" parent="dsNjfaGnqW-TMkT9A3lu-17" vertex="1">
          <mxGeometry y="26" width="160" height="30" as="geometry" />
        </mxCell>
        <mxCell id="dsNjfaGnqW-TMkT9A3lu-19" value="&lt;font style=&quot;color: rgb(0, 0, 153);&quot;&gt;product_name&lt;/font&gt;" style="text;strokeColor=none;fillColor=none;spacingLeft=4;spacingRight=4;overflow=hidden;rotatable=0;points=[[0,0.5],[1,0.5]];portConstraint=eastwest;fontSize=14;whiteSpace=wrap;html=1;labelBackgroundColor=none;fontColor=#143642;" parent="dsNjfaGnqW-TMkT9A3lu-17" vertex="1">
          <mxGeometry y="56" width="160" height="30" as="geometry" />
        </mxCell>
        <mxCell id="dsNjfaGnqW-TMkT9A3lu-20" value="&lt;font color=&quot;#000099&quot;&gt;category&lt;/font&gt;" style="text;strokeColor=none;fillColor=none;spacingLeft=4;spacingRight=4;overflow=hidden;rotatable=0;points=[[0,0.5],[1,0.5]];portConstraint=eastwest;fontSize=14;whiteSpace=wrap;html=1;labelBackgroundColor=none;fontColor=#143642;" parent="dsNjfaGnqW-TMkT9A3lu-17" vertex="1">
          <mxGeometry y="86" width="160" height="30" as="geometry" />
        </mxCell>
        <mxCell id="dsNjfaGnqW-TMkT9A3lu-21" value="&lt;font color=&quot;#000099&quot;&gt;price&lt;/font&gt;" style="text;strokeColor=none;fillColor=none;spacingLeft=4;spacingRight=4;overflow=hidden;rotatable=0;points=[[0,0.5],[1,0.5]];portConstraint=eastwest;fontSize=14;whiteSpace=wrap;html=1;labelBackgroundColor=none;fontColor=#143642;" parent="dsNjfaGnqW-TMkT9A3lu-17" vertex="1">
          <mxGeometry y="116" width="160" height="30" as="geometry" />
        </mxCell>
        <mxCell id="dsNjfaGnqW-TMkT9A3lu-23" value="orders" style="swimlane;fontStyle=1;childLayout=stackLayout;horizontal=1;startSize=26;horizontalStack=0;resizeParent=1;resizeParentMax=0;resizeLast=0;collapsible=1;marginBottom=0;align=center;fontSize=15;swimlaneFillColor=#FFFFFF;swimlaneLine=0;rounded=1;shadow=0;fillColor=#FAE5C7;fontColor=#143642;strokeColor=#0F8B8D;labelBackgroundColor=none;" parent="1" vertex="1">
          <mxGeometry x="560" y="320" width="160" height="176" as="geometry" />
        </mxCell>
        <mxCell id="dsNjfaGnqW-TMkT9A3lu-24" value="&lt;font color=&quot;#000099&quot;&gt;order_id (pk)&lt;/font&gt;" style="text;strokeColor=none;fillColor=none;spacingLeft=4;spacingRight=4;overflow=hidden;rotatable=0;points=[[0,0.5],[1,0.5]];portConstraint=eastwest;fontSize=14;whiteSpace=wrap;html=1;labelBackgroundColor=none;fontColor=#143642;" parent="dsNjfaGnqW-TMkT9A3lu-23" vertex="1">
          <mxGeometry y="26" width="160" height="30" as="geometry" />
        </mxCell>
        <mxCell id="dsNjfaGnqW-TMkT9A3lu-25" value="&lt;font color=&quot;#000099&quot;&gt;customer_id&lt;/font&gt;" style="text;strokeColor=none;fillColor=none;spacingLeft=4;spacingRight=4;overflow=hidden;rotatable=0;points=[[0,0.5],[1,0.5]];portConstraint=eastwest;fontSize=14;whiteSpace=wrap;html=1;labelBackgroundColor=none;fontColor=#143642;" parent="dsNjfaGnqW-TMkT9A3lu-23" vertex="1">
          <mxGeometry y="56" width="160" height="30" as="geometry" />
        </mxCell>
        <mxCell id="dsNjfaGnqW-TMkT9A3lu-26" value="&lt;font color=&quot;#000099&quot;&gt;order_date&lt;/font&gt;" style="text;strokeColor=none;fillColor=none;spacingLeft=4;spacingRight=4;overflow=hidden;rotatable=0;points=[[0,0.5],[1,0.5]];portConstraint=eastwest;fontSize=14;whiteSpace=wrap;html=1;labelBackgroundColor=none;fontColor=#143642;" parent="dsNjfaGnqW-TMkT9A3lu-23" vertex="1">
          <mxGeometry y="86" width="160" height="30" as="geometry" />
        </mxCell>
        <mxCell id="dsNjfaGnqW-TMkT9A3lu-27" value="&lt;font color=&quot;#000099&quot;&gt;ship_date&lt;/font&gt;" style="text;strokeColor=none;fillColor=none;spacingLeft=4;spacingRight=4;overflow=hidden;rotatable=0;points=[[0,0.5],[1,0.5]];portConstraint=eastwest;fontSize=14;whiteSpace=wrap;html=1;labelBackgroundColor=none;fontColor=#143642;" parent="dsNjfaGnqW-TMkT9A3lu-23" vertex="1">
          <mxGeometry y="116" width="160" height="30" as="geometry" />
        </mxCell>
        <mxCell id="dsNjfaGnqW-TMkT9A3lu-28" value="&lt;font color=&quot;#000099&quot;&gt;status&lt;/font&gt;" style="text;strokeColor=none;fillColor=none;spacingLeft=4;spacingRight=4;overflow=hidden;rotatable=0;points=[[0,0.5],[1,0.5]];portConstraint=eastwest;fontSize=14;whiteSpace=wrap;html=1;labelBackgroundColor=none;fontColor=#143642;" parent="dsNjfaGnqW-TMkT9A3lu-23" vertex="1">
          <mxGeometry y="146" width="160" height="30" as="geometry" />
        </mxCell>
        <mxCell id="dsNjfaGnqW-TMkT9A3lu-29" value="orders_items" style="swimlane;fontStyle=1;childLayout=stackLayout;horizontal=1;startSize=26;horizontalStack=0;resizeParent=1;resizeParentMax=0;resizeLast=0;collapsible=1;marginBottom=0;align=center;fontSize=15;swimlaneFillColor=#FFFFFF;swimlaneLine=0;rounded=1;shadow=0;fillColor=#FAE5C7;fontColor=#143642;strokeColor=#0F8B8D;labelBackgroundColor=none;" parent="1" vertex="1">
          <mxGeometry x="180" y="320" width="160" height="206" as="geometry" />
        </mxCell>
        <mxCell id="dsNjfaGnqW-TMkT9A3lu-30" value="&lt;font color=&quot;#000099&quot;&gt;order_item_id (pk)&lt;/font&gt;" style="text;strokeColor=none;fillColor=none;spacingLeft=4;spacingRight=4;overflow=hidden;rotatable=0;points=[[0,0.5],[1,0.5]];portConstraint=eastwest;fontSize=14;whiteSpace=wrap;html=1;labelBackgroundColor=none;fontColor=#143642;" parent="dsNjfaGnqW-TMkT9A3lu-29" vertex="1">
          <mxGeometry y="26" width="160" height="30" as="geometry" />
        </mxCell>
        <mxCell id="dsNjfaGnqW-TMkT9A3lu-31" value="&lt;font color=&quot;#000099&quot;&gt;order_id&lt;/font&gt;" style="text;strokeColor=none;fillColor=none;spacingLeft=4;spacingRight=4;overflow=hidden;rotatable=0;points=[[0,0.5],[1,0.5]];portConstraint=eastwest;fontSize=14;whiteSpace=wrap;html=1;labelBackgroundColor=none;fontColor=#143642;" parent="dsNjfaGnqW-TMkT9A3lu-29" vertex="1">
          <mxGeometry y="56" width="160" height="30" as="geometry" />
        </mxCell>
        <mxCell id="dsNjfaGnqW-TMkT9A3lu-32" value="&lt;font color=&quot;#000099&quot;&gt;product_id&lt;/font&gt;" style="text;strokeColor=none;fillColor=none;spacingLeft=4;spacingRight=4;overflow=hidden;rotatable=0;points=[[0,0.5],[1,0.5]];portConstraint=eastwest;fontSize=14;whiteSpace=wrap;html=1;labelBackgroundColor=none;fontColor=#143642;" parent="dsNjfaGnqW-TMkT9A3lu-29" vertex="1">
          <mxGeometry y="86" width="160" height="30" as="geometry" />
        </mxCell>
        <mxCell id="dsNjfaGnqW-TMkT9A3lu-33" value="&lt;font color=&quot;#000099&quot;&gt;quantity&lt;/font&gt;" style="text;strokeColor=none;fillColor=none;spacingLeft=4;spacingRight=4;overflow=hidden;rotatable=0;points=[[0,0.5],[1,0.5]];portConstraint=eastwest;fontSize=14;whiteSpace=wrap;html=1;labelBackgroundColor=none;fontColor=#143642;" parent="dsNjfaGnqW-TMkT9A3lu-29" vertex="1">
          <mxGeometry y="116" width="160" height="30" as="geometry" />
        </mxCell>
        <mxCell id="dsNjfaGnqW-TMkT9A3lu-34" value="&lt;font color=&quot;#000099&quot;&gt;unit_price&lt;/font&gt;" style="text;strokeColor=none;fillColor=none;spacingLeft=4;spacingRight=4;overflow=hidden;rotatable=0;points=[[0,0.5],[1,0.5]];portConstraint=eastwest;fontSize=14;whiteSpace=wrap;html=1;labelBackgroundColor=none;fontColor=#143642;" parent="dsNjfaGnqW-TMkT9A3lu-29" vertex="1">
          <mxGeometry y="146" width="160" height="30" as="geometry" />
        </mxCell>
        <mxCell id="dsNjfaGnqW-TMkT9A3lu-35" value="&lt;font style=&quot;color: rgb(0, 0, 153);&quot;&gt;total_price&lt;/font&gt;" style="text;strokeColor=none;fillColor=none;spacingLeft=4;spacingRight=4;overflow=hidden;rotatable=0;points=[[0,0.5],[1,0.5]];portConstraint=eastwest;fontSize=14;whiteSpace=wrap;html=1;labelBackgroundColor=none;fontColor=#143642;" parent="dsNjfaGnqW-TMkT9A3lu-29" vertex="1">
          <mxGeometry y="176" width="160" height="30" as="geometry" />
        </mxCell>
        <mxCell id="dsNjfaGnqW-TMkT9A3lu-39" value="" style="shape=table;startSize=0;container=1;collapsible=1;childLayout=tableLayout;fixedRows=1;rowLines=0;fontStyle=0;align=center;resizeLast=1;strokeColor=none;fillColor=none;collapsible=0;fontColor=#143642;dashed=1;dashPattern=8 8;labelBackgroundColor=none;" parent="1" vertex="1">
          <mxGeometry x="190" y="100" width="130" height="20" as="geometry" />
        </mxCell>
        <mxCell id="dsNjfaGnqW-TMkT9A3lu-40" value="" style="shape=tableRow;horizontal=0;startSize=0;swimlaneHead=0;swimlaneBody=0;fillColor=none;collapsible=0;dropTarget=0;points=[[0,0.5],[1,0.5]];portConstraint=eastwest;top=0;left=0;right=0;bottom=1;labelBackgroundColor=none;strokeColor=#0F8B8D;fontColor=#143642;" parent="dsNjfaGnqW-TMkT9A3lu-39" vertex="1">
          <mxGeometry width="130" height="20" as="geometry" />
        </mxCell>
        <mxCell id="dsNjfaGnqW-TMkT9A3lu-41" value="&lt;font style=&quot;color: rgb(204, 204, 0);&quot;&gt;PK&lt;/font&gt;" style="shape=partialRectangle;connectable=0;fillColor=none;top=0;left=0;bottom=0;right=0;fontStyle=1;overflow=hidden;whiteSpace=wrap;html=1;labelBackgroundColor=none;strokeColor=#0F8B8D;fontColor=#143642;" parent="dsNjfaGnqW-TMkT9A3lu-40" vertex="1">
          <mxGeometry width="30" height="20" as="geometry">
            <mxRectangle width="30" height="20" as="alternateBounds" />
          </mxGeometry>
        </mxCell>
        <mxCell id="dsNjfaGnqW-TMkT9A3lu-42" value="&lt;font style=&quot;color: rgb(153, 153, 0);&quot;&gt;UniqueID&lt;/font&gt;" style="shape=partialRectangle;connectable=0;fillColor=none;top=0;left=0;bottom=0;right=0;align=left;spacingLeft=6;fontStyle=5;overflow=hidden;whiteSpace=wrap;html=1;labelBackgroundColor=none;strokeColor=#0F8B8D;fontColor=#143642;" parent="dsNjfaGnqW-TMkT9A3lu-40" vertex="1">
          <mxGeometry x="30" width="100" height="20" as="geometry">
            <mxRectangle width="100" height="20" as="alternateBounds" />
          </mxGeometry>
        </mxCell>
        <mxCell id="dsNjfaGnqW-TMkT9A3lu-48" value="" style="edgeStyle=entityRelationEdgeStyle;fontSize=12;html=1;endArrow=ERzeroToMany;endFill=1;rounded=0;entryX=1;entryY=0.5;entryDx=0;entryDy=0;exitX=0.36;exitY=0.96;exitDx=0;exitDy=0;exitPerimeter=0;labelBackgroundColor=none;strokeColor=#A8201A;fontColor=default;" parent="1" source="dsNjfaGnqW-TMkT9A3lu-9" target="dsNjfaGnqW-TMkT9A3lu-32" edge="1">
          <mxGeometry width="100" height="100" relative="1" as="geometry">
            <mxPoint x="510" y="300" as="sourcePoint" />
            <mxPoint x="380" y="383" as="targetPoint" />
            <Array as="points">
              <mxPoint x="440" y="150" />
              <mxPoint x="440" y="160" />
              <mxPoint x="400" y="359" />
              <mxPoint x="380" y="359" />
            </Array>
          </mxGeometry>
        </mxCell>
        <mxCell id="dsNjfaGnqW-TMkT9A3lu-49" value="" style="shape=table;startSize=0;container=1;collapsible=1;childLayout=tableLayout;fixedRows=1;rowLines=0;fontStyle=0;align=center;resizeLast=1;strokeColor=none;fillColor=none;collapsible=0;fontColor=#143642;dashed=1;dashPattern=8 8;labelBackgroundColor=none;" parent="1" vertex="1">
          <mxGeometry x="480" y="100" width="110" height="20" as="geometry" />
        </mxCell>
        <mxCell id="dsNjfaGnqW-TMkT9A3lu-50" value="" style="shape=tableRow;horizontal=0;startSize=0;swimlaneHead=0;swimlaneBody=0;fillColor=none;collapsible=0;dropTarget=0;points=[[0,0.5],[1,0.5]];portConstraint=eastwest;top=0;left=0;right=0;bottom=1;labelBackgroundColor=none;strokeColor=#0F8B8D;fontColor=#143642;" parent="dsNjfaGnqW-TMkT9A3lu-49" vertex="1">
          <mxGeometry width="110" height="20" as="geometry" />
        </mxCell>
        <mxCell id="dsNjfaGnqW-TMkT9A3lu-51" value="&lt;font style=&quot;color: rgb(204, 204, 0);&quot;&gt;PK&lt;/font&gt;" style="shape=partialRectangle;connectable=0;fillColor=none;top=0;left=0;bottom=0;right=0;fontStyle=1;overflow=hidden;whiteSpace=wrap;html=1;labelBackgroundColor=none;strokeColor=#0F8B8D;fontColor=#143642;" parent="dsNjfaGnqW-TMkT9A3lu-50" vertex="1">
          <mxGeometry width="30" height="20" as="geometry">
            <mxRectangle width="30" height="20" as="alternateBounds" />
          </mxGeometry>
        </mxCell>
        <mxCell id="dsNjfaGnqW-TMkT9A3lu-52" value="&lt;font style=&quot;color: rgb(153, 153, 0);&quot;&gt;UniqueID&lt;/font&gt;" style="shape=partialRectangle;connectable=0;fillColor=none;top=0;left=0;bottom=0;right=0;align=left;spacingLeft=6;fontStyle=5;overflow=hidden;whiteSpace=wrap;html=1;labelBackgroundColor=none;strokeColor=#0F8B8D;fontColor=#143642;" parent="dsNjfaGnqW-TMkT9A3lu-50" vertex="1">
          <mxGeometry x="30" width="80" height="20" as="geometry">
            <mxRectangle width="80" height="20" as="alternateBounds" />
          </mxGeometry>
        </mxCell>
        <mxCell id="Iamex24UQOT6J8MSvg2U-2" value="" style="edgeStyle=entityRelationEdgeStyle;fontSize=12;html=1;endArrow=ERoneToMany;startArrow=ERmandOne;rounded=0;entryX=0;entryY=0.5;entryDx=0;entryDy=0;labelBackgroundColor=none;strokeColor=#A8201A;fontColor=default;" edge="1" parent="1" source="dsNjfaGnqW-TMkT9A3lu-10" target="dsNjfaGnqW-TMkT9A3lu-25">
          <mxGeometry width="100" height="100" relative="1" as="geometry">
            <mxPoint x="380" y="370" as="sourcePoint" />
            <mxPoint x="520" y="320" as="targetPoint" />
          </mxGeometry>
        </mxCell>
        <mxCell id="Iamex24UQOT6J8MSvg2U-3" value="" style="edgeStyle=entityRelationEdgeStyle;fontSize=12;html=1;endArrow=ERoneToMany;rounded=0;entryX=0;entryY=0.5;entryDx=0;entryDy=0;labelBackgroundColor=none;strokeColor=#A8201A;fontColor=default;" edge="1" parent="1" target="dsNjfaGnqW-TMkT9A3lu-26">
          <mxGeometry width="100" height="100" relative="1" as="geometry">
            <mxPoint x="340" y="500" as="sourcePoint" />
            <mxPoint x="440" y="400" as="targetPoint" />
          </mxGeometry>
        </mxCell>
        <mxCell id="Iamex24UQOT6J8MSvg2U-4" value="" style="edgeStyle=entityRelationEdgeStyle;fontSize=12;html=1;endArrow=ERoneToMany;startArrow=ERmandOne;rounded=0;exitX=1;exitY=0.5;exitDx=0;exitDy=0;labelBackgroundColor=none;strokeColor=#A8201A;fontColor=default;" edge="1" parent="1" source="dsNjfaGnqW-TMkT9A3lu-33">
          <mxGeometry width="100" height="100" relative="1" as="geometry">
            <mxPoint x="490" y="290" as="sourcePoint" />
            <mxPoint x="590" y="190" as="targetPoint" />
          </mxGeometry>
        </mxCell>
      </root>
    </mxGraphModel>
  </diagram>
</mxfile>
